<svg xmlns="http://www.w3.org/2000/svg" width="32" height="32" viewBox="0 0 32 32">
  <metadata><?xpacket begin="﻿" id="W5M0MpCehiHzreSzNTczkc9d"?>
<x:xmpmeta xmlns:x="adobe:ns:meta/" x:xmptk="Adobe XMP Core 5.6-c138 79.159824, 2016/09/14-01:09:01        ">
   <rdf:RDF xmlns:rdf="http://www.w3.org/1999/02/22-rdf-syntax-ns#">
      <rdf:Description rdf:about=""/>
   </rdf:RDF>
</x:xmpmeta>
                                                                                                    
                                                                                                    
                                                                                                    
                                                                                                    
                                                                                                    
                                                                                                    
                                                                                                    
                                                                                                    
                                                                                                    
                                                                                                    
                                                                                                    
                                                                                                    
                                                                                                    
                                                                                                    
                                                                                                    
                                                                                                    
                                                                                                    
                                                                                                    
                                                                                                    
                                                                                                    
                           
<?xpacket end="w"?></metadata>
<defs>
    <style>
      .cls-1 {
        fill: #f6f6f6;
        fill-rule: evenodd;
      }
    </style>
  </defs>
  <path id="Camera-icon" class="cls-1" d="M423,3225.01h-6.382l-1.724-3.45a0.994,0.994,0,0,0-.894-0.55h-8a1,1,0,0,0-.895.55l-1.723,3.45H397a3,3,0,0,0-3,3v22a3.006,3.006,0,0,0,3,3h26a3.006,3.006,0,0,0,3-3v-22A3,3,0,0,0,423,3225.01Zm-27,11h5.95a8.9,8.9,0,0,0,0,8H396v-8Zm7,4a7,7,0,1,1,7,7A7.008,7.008,0,0,1,403,3240.01Zm15.05-4H424v8h-5.95A8.9,8.9,0,0,0,418.05,3236.01Zm-21.05-9h7a1,1,0,0,0,.894-0.56l1.724-3.44h6.764l1.723,3.44a1.006,1.006,0,0,0,.895.56h7a1,1,0,0,1,1,1v6h-7a0.777,0.777,0,0,0-.263.05,8.966,8.966,0,0,0-13.474,0,0.782,0.782,0,0,0-.263-0.05h-7v-6A1,1,0,0,1,397,3227.01Zm26,24H397a1,1,0,0,1-1-1v-4h7a0.793,0.793,0,0,0,.263-0.06,8.946,8.946,0,0,0,13.474,0,0.788,0.788,0,0,0,.263.06h7v4A1,1,0,0,1,423,3251.01Zm-13-14a3,3,0,0,1,3,3,1,1,0,0,0,2,0,5,5,0,0,0-5-5A1,1,0,0,0,410,3237.01Z" transform="translate(-394 -3221)"/>
</svg>
