<svg xmlns="http://www.w3.org/2000/svg" width="17" height="32" viewBox="0 0 17 32">
  <metadata><?xpacket begin="﻿" id="W5M0MpCehiHzreSzNTczkc9d"?>
<x:xmpmeta xmlns:x="adobe:ns:meta/" x:xmptk="Adobe XMP Core 5.6-c138 79.159824, 2016/09/14-01:09:01        ">
   <rdf:RDF xmlns:rdf="http://www.w3.org/1999/02/22-rdf-syntax-ns#">
      <rdf:Description rdf:about=""/>
   </rdf:RDF>
</x:xmpmeta>
                                                                                                    
                                                                                                    
                                                                                                    
                                                                                                    
                                                                                                    
                                                                                                    
                                                                                                    
                                                                                                    
                                                                                                    
                                                                                                    
                                                                                                    
                                                                                                    
                                                                                                    
                                                                                                    
                                                                                                    
                                                                                                    
                                                                                                    
                                                                                                    
                                                                                                    
                                                                                                    
                           
<?xpacket end="w"?></metadata>
<defs>
    <style>
      .cls-1 {
        fill: #f6f6f6;
        fill-rule: evenodd;
      }
    </style>
  </defs>
  <path id="Nature-icon" class="cls-1" d="M752.5,3243.48c0-9.71-7.361-20.63-7.674-21.09a1.045,1.045,0,0,0-1.652,0c-0.314.46-7.674,11.38-7.674,21.09a8.513,8.513,0,0,0,7.5,8.44v1.06a1,1,0,1,0,2,0v-1.06A8.513,8.513,0,0,0,752.5,3243.48Zm-7.5,6.42v-3.51l2.707-2.71a1,1,0,0,0-1.414-1.41L745,3243.56v-4.17l2.707-2.71a1,1,0,0,0-1.414-1.42L745,3236.55v-5.59a1,1,0,0,0-2,0v5.59l-1.293-1.29a1,1,0,0,0-1.414,1.42l2.707,2.71v4.17l-1.293-1.29a1,1,0,0,0-1.414,1.41l2.707,2.71v3.51a6.517,6.517,0,0,1-5.5-6.42c0-7.23,4.583-15.51,6.5-18.66,1.916,3.15,6.5,11.43,6.5,18.66A6.517,6.517,0,0,1,745,3249.9Z" transform="translate(-735.5 -3222)"/>
</svg>
