<svg xmlns="http://www.w3.org/2000/svg" width="32" height="32" viewBox="0 0 32 32">
  <metadata><?xpacket begin="﻿" id="W5M0MpCehiHzreSzNTczkc9d"?>
<x:xmpmeta xmlns:x="adobe:ns:meta/" x:xmptk="Adobe XMP Core 5.6-c138 79.159824, 2016/09/14-01:09:01        ">
   <rdf:RDF xmlns:rdf="http://www.w3.org/1999/02/22-rdf-syntax-ns#">
      <rdf:Description rdf:about=""/>
   </rdf:RDF>
</x:xmpmeta>
                                                                                                    
                                                                                                    
                                                                                                    
                                                                                                    
                                                                                                    
                                                                                                    
                                                                                                    
                                                                                                    
                                                                                                    
                                                                                                    
                                                                                                    
                                                                                                    
                                                                                                    
                                                                                                    
                                                                                                    
                                                                                                    
                                                                                                    
                                                                                                    
                                                                                                    
                                                                                                    
                           
<?xpacket end="w"?></metadata>
<defs>
    <style>
      .cls-1 {
        fill: #f6f6f6;
        fill-rule: evenodd;
      }
    </style>
  </defs>
  <path id="Prize-icon" class="cls-1" d="M1421.89,3226.65c-0.03-.01-0.06,0-0.09-0.01a32.848,32.848,0,0,0,.21-3.64,1,1,0,0,0-1-1h-22a1,1,0,0,0-1,1,30.254,30.254,0,0,0,.22,3.63c-0.04.01-.08,0.01-0.12,0.02a6.671,6.671,0,0,0,2.54,12.83,6.583,6.583,0,0,0,2-.32,30.384,30.384,0,0,0,3.26,4.34,0.8,0.8,0,0,0,.23.38,3,3,0,0,1-2.13,5.12,4.005,4.005,0,0,0-4,4,1,1,0,0,0,1,1h18a1,1,0,0,0,1-1,4,4,0,0,0-4-4,2.973,2.973,0,0,1-2.12-.88,2.994,2.994,0,0,1,0-4.24,1,1,0,0,0,.23-0.38,31.8,31.8,0,0,0,3.26-4.33A6.66,6.66,0,0,0,1421.89,3226.65ZM1420,3224a29.159,29.159,0,0,1-9.99,20.71,29.161,29.161,0,0,1-9.98-20.71H1420Zm-21.15,13.11a4.6,4.6,0,0,1-2.51-2.52,4.651,4.651,0,0,1,2.2-5.91,30.381,30.381,0,0,0,3.06,8.69A4.651,4.651,0,0,1,1398.85,3237.11Zm17.16,13.89a2.013,2.013,0,0,1,1.74,1h-15.47a2,2,0,0,1,1.73-1,4.963,4.963,0,0,0,4.96-4.55c0.25,0.2.41,0.32,0.46,0.36a1,1,0,0,0,1.17,0c0.05-.04.21-0.16,0.46-0.36a4.91,4.91,0,0,0,1.42,3.09A4.97,4.97,0,0,0,1416.01,3251Zm7.65-16.41a4.683,4.683,0,0,1-5.24,2.79,29.976,29.976,0,0,0,3.07-8.69A4.662,4.662,0,0,1,1423.66,3234.59Z" transform="translate(-1394 -3222)"/>
</svg>
