<svg xmlns="http://www.w3.org/2000/svg" width="32" height="28" viewBox="0 0 32 28">
  <metadata><?xpacket begin="﻿" id="W5M0MpCehiHzreSzNTczkc9d"?>
<x:xmpmeta xmlns:x="adobe:ns:meta/" x:xmptk="Adobe XMP Core 5.6-c138 79.159824, 2016/09/14-01:09:01        ">
   <rdf:RDF xmlns:rdf="http://www.w3.org/1999/02/22-rdf-syntax-ns#">
      <rdf:Description rdf:about=""/>
   </rdf:RDF>
</x:xmpmeta>
                                                                                                    
                                                                                                    
                                                                                                    
                                                                                                    
                                                                                                    
                                                                                                    
                                                                                                    
                                                                                                    
                                                                                                    
                                                                                                    
                                                                                                    
                                                                                                    
                                                                                                    
                                                                                                    
                                                                                                    
                                                                                                    
                                                                                                    
                                                                                                    
                                                                                                    
                                                                                                    
                           
<?xpacket end="w"?></metadata>
<defs>
    <style>
      .cls-1 {
        fill: #f6f6f6;
        fill-rule: evenodd;
      }
    </style>
  </defs>
  <path id="world-icon" class="cls-1" d="M1077,3222c-8.82,0-16,6.28-16,14s7.18,14,16,14,16-6.28,16-14S1085.82,3222,1077,3222Zm13.94,13h-4.97a20.5,20.5,0,0,0-.99-5.57,14.2,14.2,0,0,0,2.46-1.4A11.2,11.2,0,0,1,1090.94,3235ZM1078,3224.14c1.69,0.44,3.2,1.95,4.29,4.1a18.667,18.667,0,0,1-4.29.72v-4.82Zm4.64,0.89a14.568,14.568,0,0,1,3.16,1.65,13.287,13.287,0,0,1-1.59.86A12.909,12.909,0,0,0,1082.64,3225.03Zm-6.64-.89v4.82a18.671,18.671,0,0,1-4.29-.71C1072.8,3226.09,1074.31,3224.58,1076,3224.14Zm-6.2,3.4a11.663,11.663,0,0,1-1.61-.86,14.644,14.644,0,0,1,3.17-1.65A12.42,12.42,0,0,0,1069.8,3227.54Zm6.2,3.42V3235h-5.97a18.547,18.547,0,0,1,.9-4.88A20.589,20.589,0,0,0,1076,3230.96Zm0,6.04v4.04a21.076,21.076,0,0,0-5.07.83,18.47,18.47,0,0,1-.9-4.87H1076Zm0,6.04v4.82c-1.69-.44-3.2-1.95-4.29-4.1A18.143,18.143,0,0,1,1076,3243.04Zm-4.64,3.93a14.568,14.568,0,0,1-3.16-1.65,13.287,13.287,0,0,1,1.59-.86A13.217,13.217,0,0,0,1071.36,3246.97Zm6.64,0.89v-4.82a18.147,18.147,0,0,1,4.29.71C1081.2,3245.91,1079.69,3247.42,1078,3247.86Zm6.2-3.39a11.633,11.633,0,0,1,1.61.85,14.879,14.879,0,0,1-3.17,1.65A12.622,12.622,0,0,0,1084.2,3244.47Zm-6.2-3.43V3237h5.97a18.221,18.221,0,0,1-.91,4.88A20.428,20.428,0,0,0,1078,3241.04Zm0-6.04v-4.04a20.589,20.589,0,0,0,5.07-.84,18.624,18.624,0,0,1,.9,4.88H1078Zm-11.45-6.96a13.911,13.911,0,0,0,2.47,1.39,20.573,20.573,0,0,0-.99,5.57h-4.97A11.185,11.185,0,0,1,1066.55,3228.04Zm-3.49,8.96h4.97a20.5,20.5,0,0,0,.99,5.57,13.582,13.582,0,0,0-2.46,1.4A11.223,11.223,0,0,1,1063.06,3237Zm24.38,6.96a13.814,13.814,0,0,0-2.46-1.39,20.573,20.573,0,0,0,.99-5.57h4.97A11.148,11.148,0,0,1,1087.44,3243.96Z" transform="translate(-1061 -3222)"/>
</svg>
